<?xml version="1.0" encoding="UTF-8" standalone="no"?>
<!-- Created with Inkscape (http://www.inkscape.org/) -->

<svg
   width="200mm"
   height="200mm"
   viewBox="0 0 200 200"
   version="1.1"
   id="svg5"
   inkscape:version="1.2.2 (b0a8486541, 2022-12-01)"
   sodipodi:docname="super_zajebista_recznie_robiona_trawa.svg"
   inkscape:export-filename="super_zajebista_recznie_robiona_trawa.png"
   inkscape:export-xdpi="25.4"
   inkscape:export-ydpi="25.4"
   xmlns:inkscape="http://www.inkscape.org/namespaces/inkscape"
   xmlns:sodipodi="http://sodipodi.sourceforge.net/DTD/sodipodi-0.dtd"
   xmlns="http://www.w3.org/2000/svg"
   xmlns:svg="http://www.w3.org/2000/svg">
  <sodipodi:namedview
     id="namedview7"
     pagecolor="#505050"
     bordercolor="#eeeeee"
     borderopacity="1"
     inkscape:showpageshadow="0"
     inkscape:pageopacity="0"
     inkscape:pagecheckerboard="0"
     inkscape:deskcolor="#505050"
     inkscape:document-units="mm"
     showgrid="false"
     inkscape:zoom="0.74564394"
     inkscape:cx="466.71069"
     inkscape:cy="347.35077"
     inkscape:window-width="1920"
     inkscape:window-height="1017"
     inkscape:window-x="-8"
     inkscape:window-y="-8"
     inkscape:window-maximized="1"
     inkscape:current-layer="layer1" />
  <defs
     id="defs2" />
  <g
     inkscape:label="Layer 1"
     inkscape:groupmode="layer"
     id="layer1">
    <path
       style="fill:#225500;stroke-width:0.235745"
       d="M 65.222682,134.04312 C 35.550407,76.456863 62.014868,65.488053 62.014868,65.488053 c 0,0 -14.836139,24.181248 8.42052,68.056477 23.256647,43.87524 -5.212706,0.49859 -5.212706,0.49859 z"
       id="path402-1" />
    <path
       style="fill:#99ff55;stroke-width:0.243796"
       d="m 137.67593,133.22172 c 29.67227,-61.586601 3.20781,-73.317373 3.20781,-73.317373 0,0 14.83613,25.861029 -8.42053,72.784163 -23.25664,46.92311 5.21272,0.53321 5.21272,0.53321 z"
       id="path402-7" />
    <path
       style="fill:#008000;stroke-width:0.336399"
       d="m 153.1753,154.25491 c 31.67716,-106.598174 74.18071,-97.968795 24.45959,-79.187214 -49.72112,18.78158 -48.91917,77.664394 -48.91917,77.664394 0,0 -12.83125,-38.07078 17.242,-78.172007 30.07325,-40.101209 33.68205,-35.025114 33.68205,-35.025114 0,0 -48.51819,-8.629365 -78.99242,57.359981 -30.474236,65.98934 -13.232237,60.91324 -26.46447,62.43607 -13.232234,1.52284 78.99242,-5.07611 78.99242,-5.07611 z"
       id="path123" />
    <path
       style="fill:#44aa00;stroke-width:0.247724"
       d="m 125.10694,113.20306 c -29.672292,-63.586759 -3.20783,-75.698526 -3.20783,-75.698526 0,0 -14.83613,26.700941 8.42051,75.147996 23.25665,48.44705 -5.21268,0.55053 -5.21268,0.55053 z"
       id="path402" />
    <path
       style="fill:#44aa00;stroke-width:0.285719"
       d="M 89.281291,129.13316 C 59.609015,44.544599 86.073476,28.432503 86.073476,28.432503 c 0,0 -14.836138,35.519867 8.42052,99.968277 23.256654,64.44841 -5.212705,0.73238 -5.212705,0.73238 z"
       id="path402-6" />
    <path
       style="fill:#00ff00;stroke-width:0.336399"
       d="M 47.240352,155.3415 C 15.563186,48.743315 -26.940359,57.372694 22.780771,76.154275 72.50189,94.935857 71.699934,153.81866 71.699934,153.81866 c 0,0 12.831257,-38.07078 -17.241996,-78.171997 C 24.384684,35.545455 20.775892,40.621548 20.775892,40.621548 c 0,0 48.518183,-8.629365 78.992415,57.359981 30.474233,65.989341 13.232233,60.913241 26.464473,62.436071 13.23223,1.52283 -78.992428,-5.0761 -78.992428,-5.0761 z"
       id="path123-9" />
    <path
       style="fill:#44aa00;stroke-width:0.249664"
       d="m 87.152842,134.76301 c 29.672278,-64.586854 3.207814,-76.889112 3.207814,-76.889112 0,0 14.836144,27.12089 -8.420509,76.329922 -23.256657,49.20901 5.212695,0.55919 5.212695,0.55919 z"
       id="path402-4" />
    <path
       style="fill:#55d400;stroke-width:0.205763"
       d="m 167.81302,158.39184 c 19.22914,-65.699167 45.03027,-60.380655 14.84782,-48.8051 -30.18245,11.57558 -29.69564,47.86654 -29.69564,47.86654 0,0 -7.78902,-23.46399 10.4665,-48.17938 18.25552,-24.715398 20.44617,-21.586867 20.44617,-21.586867 0,0 -29.45222,-5.318499 -47.95115,35.352407 -18.49892,40.6709 -8.03243,37.54237 -16.06485,38.48093 -8.03244,0.93856 47.95115,-3.12853 47.95115,-3.12853 z"
       id="path123-5" />
    <path
       style="fill:#99ff55;stroke-width:0.16931"
       d="m 92.149554,156.76395 c 14.847436,-57.60925 34.769326,-52.94564 11.464476,-42.79543 -23.304841,10.15019 -22.928955,41.97244 -22.928955,41.97244 0,0 -6.014154,-20.57473 8.081518,-42.24678 14.095667,-21.672044 15.787147,-18.928758 15.787147,-18.928758 0,0 -22.741011,-4.663598 -37.024627,30.999258 -14.283615,35.66287 -6.202098,32.91957 -12.404196,33.74257 -6.202096,0.82299 37.024637,-2.7433 37.024637,-2.7433 z"
       id="path123-6" />
    <path
       style="fill:#44aa00;stroke-width:0.13766"
       d="M 109.41197,158.629 C 95.460796,118.09846 76.741474,121.3795 98.639532,128.52059 c 21.898078,7.14111 21.544888,29.5294 21.544888,29.5294 0,0 5.65112,-14.4752 -7.59369,-29.7224 -13.244799,-15.24719 -14.834172,-13.31718 -14.834172,-13.31718 0,0 21.368282,-3.28103 34.789672,21.8093 13.4214,25.09033 5.82772,23.16031 11.65543,23.73931 5.82771,0.57901 -34.78969,-1.93002 -34.78969,-1.93002 z"
       id="path123-1" />
    <path
       style="fill:#44aa00;stroke-width:0.264583"
       d="m -54.64516,226.03226 -11.709677,-28.3871"
       id="path404" />
  </g>
</svg>
