<?xml version="1.0" encoding="UTF-8" standalone="no"?>
<!-- Created with Inkscape (http://www.inkscape.org/) -->

<svg
   width="200mm"
   height="200mm"
   viewBox="0 0 200 200"
   version="1.1"
   id="svg485"
   inkscape:version="1.2.2 (b0a8486541, 2022-12-01)"
   sodipodi:docname="zlowik.svg"
   inkscape:export-filename="zlowik.png"
   inkscape:export-xdpi="25.4"
   inkscape:export-ydpi="25.4"
   xmlns:inkscape="http://www.inkscape.org/namespaces/inkscape"
   xmlns:sodipodi="http://sodipodi.sourceforge.net/DTD/sodipodi-0.dtd"
   xmlns:xlink="http://www.w3.org/1999/xlink"
   xmlns="http://www.w3.org/2000/svg"
   xmlns:svg="http://www.w3.org/2000/svg">
  <sodipodi:namedview
     id="namedview487"
     pagecolor="#505050"
     bordercolor="#eeeeee"
     borderopacity="1"
     inkscape:showpageshadow="0"
     inkscape:pageopacity="0"
     inkscape:pagecheckerboard="0"
     inkscape:deskcolor="#505050"
     inkscape:document-units="mm"
     showgrid="false"
     inkscape:zoom="0.52724989"
     inkscape:cx="462.77866"
     inkscape:cy="573.73174"
     inkscape:window-width="1350"
     inkscape:window-height="1040"
     inkscape:window-x="554"
     inkscape:window-y="0"
     inkscape:window-maximized="0"
     inkscape:current-layer="layer1" />
  <defs
     id="defs482">
    <inkscape:path-effect
       effect="bspline"
       id="path-effect10315"
       is_visible="true"
       lpeversion="1"
       weight="33.333333"
       steps="2"
       helper_size="0"
       apply_no_weight="true"
       apply_with_weight="true"
       only_selected="false" />
    <inkscape:path-effect
       effect="bspline"
       id="path-effect10311"
       is_visible="true"
       lpeversion="1"
       weight="33.333333"
       steps="2"
       helper_size="0"
       apply_no_weight="true"
       apply_with_weight="true"
       only_selected="false" />
    <inkscape:path-effect
       effect="bspline"
       id="path-effect10233"
       is_visible="true"
       lpeversion="1"
       weight="33.333333"
       steps="2"
       helper_size="0"
       apply_no_weight="true"
       apply_with_weight="true"
       only_selected="false" />
    <inkscape:path-effect
       effect="bspline"
       id="path-effect8215"
       is_visible="true"
       lpeversion="1"
       weight="33.333333"
       steps="2"
       helper_size="0"
       apply_no_weight="true"
       apply_with_weight="true"
       only_selected="false" />
    <linearGradient
       inkscape:collect="always"
       id="linearGradient8104">
      <stop
         style="stop-color:#52ff15;stop-opacity:1;"
         offset="0"
         id="stop8100" />
      <stop
         style="stop-color:#a5ff1b;stop-opacity:1;"
         offset="1"
         id="stop8102" />
    </linearGradient>
    <radialGradient
       inkscape:collect="always"
       xlink:href="#linearGradient8104"
       id="radialGradient8106"
       cx="113.16002"
       cy="108.82645"
       fx="113.16002"
       fy="108.82645"
       r="16.420456"
       gradientTransform="matrix(4.5830645,0,0,4.2712384,-418.99131,-344.6735)"
       gradientUnits="userSpaceOnUse" />
    <inkscape:path-effect
       effect="bspline"
       id="path-effect10233-5"
       is_visible="true"
       lpeversion="1"
       weight="33.333333"
       steps="2"
       helper_size="0"
       apply_no_weight="true"
       apply_with_weight="true"
       only_selected="false" />
    <inkscape:path-effect
       effect="bspline"
       id="path-effect10233-56"
       is_visible="true"
       lpeversion="1"
       weight="33.333333"
       steps="2"
       helper_size="0"
       apply_no_weight="true"
       apply_with_weight="true"
       only_selected="false" />
    <inkscape:path-effect
       effect="bspline"
       id="path-effect10233-0"
       is_visible="true"
       lpeversion="1"
       weight="33.333333"
       steps="2"
       helper_size="0"
       apply_no_weight="true"
       apply_with_weight="true"
       only_selected="false" />
  </defs>
  <g
     inkscape:label="Layer 1"
     inkscape:groupmode="layer"
     id="layer1">
    <path
       id="path3097-1"
       style="fill:url(#radialGradient8106);fill-opacity:1;stroke:#000000;stroke-width:3.19709;stroke-dasharray:none"
       d="m 102.70722,51.475384 c -0.73352,0.0047 -1.47218,0.017 -2.21679,0.03947 -18.396096,0.01069 -33.215298,2.816623 -44.638906,8.2566 l -0.0711,0.106544 -0.03789,-0.05328 c -20.064936,9.603075 -29.614956,27.365959 -29.618742,52.441732 -5.9e-5,3.15667 0.100797,6.29628 0.300782,9.40679 l 29.966922,-0.30382 -0.130245,0.19337 21.848157,30.65497 42.791622,-0.43603 20.94341,-31.08901 -21.70842,-30.455707 0.18946,-0.002 0.20134,-0.29985 21.69183,30.432037 30.79108,-0.31371 C 171.13879,83.215642 147.05548,51.193683 102.70722,51.475471 Z m -25.353332,38.943121 0.04023,0.05524 h -0.07815 z m 95.693742,30.392595 -31.16057,0.31764 -20.94342,31.08899 20.43896,28.67418 c 19.92069,-10.26184 31.75083,-29.97477 31.75033,-56.17249 -6e-5,-1.30806 -0.0302,-2.61053 -0.0853,-3.90832 z m -116.298514,1.55858 -30.260591,0.30779 c 2.543743,35.27061 19.51106,66.14881 79.174405,66.14946 13.62797,2e-4 25.68422,-2.76955 35.69836,-7.92318 l -20.21398,-28.36047 -42.580836,0.43402 z" />
    <path
       style="fill:#5aa02c;fill-opacity:0;stroke:#000000;stroke-width:4.15942;stroke-dasharray:none;stroke-opacity:1"
       d="M 57.296288,123.61459 77.62438,90.763022 55.466729,61.12889 78.234203,91.271058 120.11012,89.408313 140.23495,62.144918 120.31342,89.746991 143.28416,121.07453 121.12651,152.2327 78.234203,152.40221 56.483162,178.48028 78.640765,152.2329 Z"
       id="path3789" />
    <path
       style="fill:#274212;fill-opacity:0;stroke:#000000;stroke-width:0;stroke-dasharray:none;stroke-opacity:1"
       d="m 53.63721,174.26888 c -5.794977,-4.03357 -11.040199,-9.51653 -14.756971,-15.42593 -5.437322,-8.64484 -9.127126,-20.54733 -10.271604,-33.1338 l -0.132894,-1.46153 7.193777,-0.10445 c 3.956587,-0.0575 9.861756,-0.12598 13.122613,-0.15228 l 5.928814,-0.0478 10.464481,14.02839 10.464492,14.02841 -9.84125,11.80073 c -5.412695,6.49041 -9.908165,11.81931 -9.989954,11.84198 -0.08172,0.0226 -1.063465,-0.59548 -2.181509,-1.37368 z"
       id="path3864" />
    <path
       style="fill:#274212;fill-opacity:0;stroke:#000000;stroke-width:0;stroke-dasharray:none;stroke-opacity:1"
       d="m 53.63721,174.26888 c -5.794977,-4.03357 -11.040199,-9.51653 -14.756971,-15.42593 -5.437322,-8.64484 -9.127126,-20.54733 -10.271604,-33.1338 l -0.132894,-1.46153 7.193777,-0.10445 c 3.956587,-0.0575 9.861756,-0.12598 13.122613,-0.15228 l 5.928814,-0.0478 10.464481,14.02839 10.464492,14.02841 -9.84125,11.80073 c -5.412695,6.49041 -9.908165,11.81931 -9.989954,11.84198 -0.08172,0.0226 -1.063465,-0.59548 -2.181509,-1.37368 z"
       id="path5315" />
    <path
       style="fill:#274212;fill-opacity:0;stroke:#000000;stroke-width:0;stroke-dasharray:none;stroke-opacity:1"
       d="m 53.63721,174.26888 c -5.794977,-4.03357 -11.040199,-9.51653 -14.756971,-15.42593 -5.437322,-8.64484 -9.127126,-20.54733 -10.271604,-33.1338 l -0.132894,-1.46153 7.193777,-0.10445 c 3.956587,-0.0575 9.861756,-0.12598 13.122613,-0.15228 l 5.928814,-0.0478 10.464481,14.02839 10.464492,14.02841 -9.84125,11.80073 c -5.412695,6.49041 -9.908165,11.81931 -9.989954,11.84198 -0.08172,0.0226 -1.063465,-0.59548 -2.181509,-1.37368 z"
       id="path5317" />
    <path
       style="fill:#274212;fill-opacity:0;stroke:#000000;stroke-width:0;stroke-dasharray:none;stroke-opacity:1"
       d="m 53.63721,174.26888 c -5.794977,-4.03357 -11.040199,-9.51653 -14.756971,-15.42593 -5.437322,-8.64484 -9.127126,-20.54733 -10.271604,-33.1338 l -0.132894,-1.46153 7.193777,-0.10445 c 3.956587,-0.0575 9.861756,-0.12598 13.122613,-0.15228 l 5.928814,-0.0478 10.464481,14.02839 10.464492,14.02841 -9.84125,11.80073 c -5.412695,6.49041 -9.908165,11.81931 -9.989954,11.84198 -0.08172,0.0226 -1.063465,-0.59548 -2.181509,-1.37368 z"
       id="path5319" />
    <path
       style="fill:#274212;fill-opacity:0;stroke:#000000;stroke-width:0;stroke-dasharray:none;stroke-opacity:1"
       d="m 53.63721,174.26888 c -5.794977,-4.03357 -11.040199,-9.51653 -14.756971,-15.42593 -5.437322,-8.64484 -9.127126,-20.54733 -10.271604,-33.1338 l -0.132894,-1.46153 7.193777,-0.10445 c 3.956587,-0.0575 9.861756,-0.12598 13.122613,-0.15228 l 5.928814,-0.0478 10.464481,14.02839 10.464492,14.02841 -9.84125,11.80073 c -5.412695,6.49041 -9.908165,11.81931 -9.989954,11.84198 -0.08172,0.0226 -1.063465,-0.59548 -2.181509,-1.37368 z"
       id="path5321" />
    <path
       style="fill:#274212;fill-opacity:0;stroke:#000000;stroke-width:0;stroke-dasharray:none;stroke-opacity:1"
       d="m 28.02473,115.85776 c -0.427783,-12.50515 1.523562,-23.539103 5.699318,-32.227018 3.621035,-7.533765 9.039272,-13.802407 15.949176,-18.452405 1.906237,-1.282799 4.030024,-2.526841 4.147151,-2.429271 0.04886,0.04071 4.806633,6.382865 10.572947,14.093807 l 10.484222,14.019898 -8.931763,14.428509 -8.931764,14.42853 -4.331053,0.10855 c -2.382084,0.0597 -8.871836,0.15063 -14.421674,0.20206 l -10.090623,0.0935 z"
       id="path5323" />
    <path
       style="fill:#274212;fill-opacity:0;stroke:#000000;stroke-width:0;stroke-dasharray:none;stroke-opacity:1"
       d="m 28.02473,115.85776 c -0.427783,-12.50515 1.523562,-23.539103 5.699318,-32.227018 3.621035,-7.533765 9.039272,-13.802407 15.949176,-18.452405 1.906237,-1.282799 4.030024,-2.526841 4.147151,-2.429271 0.04886,0.04071 4.806633,6.382865 10.572947,14.093807 l 10.484222,14.019898 -8.931763,14.428509 -8.931764,14.42853 -4.331053,0.10855 c -2.382084,0.0597 -8.871836,0.15063 -14.421674,0.20206 l -10.090623,0.0935 z"
       id="path5325" />
    <path
       style="fill:#00ff00;fill-opacity:0;stroke:#000000;stroke-width:0;stroke-dasharray:none;stroke-opacity:1"
       d="m 28.02473,115.85776 c -0.427783,-12.50515 1.523562,-23.539103 5.699318,-32.227018 3.621035,-7.533765 9.039272,-13.802407 15.949176,-18.452405 1.906237,-1.282799 4.030024,-2.526841 4.147151,-2.429271 0.04886,0.04071 4.806633,6.382865 10.572947,14.093807 l 10.484222,14.019898 -8.931763,14.428509 -8.931764,14.42853 -4.331053,0.10855 c -2.382084,0.0597 -8.871836,0.15063 -14.421674,0.20206 l -10.090623,0.0935 z"
       id="path5327" />
    <path
       style="fill:#00ff00;fill-opacity:0;stroke:#000000;stroke-width:0;stroke-dasharray:none;stroke-opacity:1"
       d="m 28.02473,115.85776 c -0.427783,-12.50515 1.523562,-23.539103 5.699318,-32.227018 3.621035,-7.533765 9.039272,-13.802407 15.949176,-18.452405 1.906237,-1.282799 4.030024,-2.526841 4.147151,-2.429271 0.04886,0.04071 4.806633,6.382865 10.572947,14.093807 l 10.484222,14.019898 -8.931763,14.428509 -8.931764,14.42853 -4.331053,0.10855 c -2.382084,0.0597 -8.871836,0.15063 -14.421674,0.20206 l -10.090623,0.0935 z"
       id="path5398" />
    <path
       style="fill:#00ff00;fill-opacity:0;stroke:#000000;stroke-width:0;stroke-dasharray:none;stroke-opacity:1"
       d="m 28.02473,115.85776 c -0.427783,-12.50515 1.523562,-23.539103 5.699318,-32.227018 3.621035,-7.533765 9.039272,-13.802407 15.949176,-18.452405 1.906237,-1.282799 4.030024,-2.526841 4.147151,-2.429271 0.04886,0.04071 4.806633,6.382865 10.572947,14.093807 l 10.484222,14.019898 -8.931763,14.428509 -8.931764,14.42853 -4.331053,0.10855 c -2.382084,0.0597 -8.871836,0.15063 -14.421674,0.20206 l -10.090623,0.0935 z"
       id="path5400" />
    <path
       style="fill:#00ff00;fill-opacity:0;stroke:#000000;stroke-width:0;stroke-dasharray:none;stroke-opacity:1"
       d="m 80.00621,150.23664 c -0.107923,-0.11294 -4.643008,-6.16975 -10.077868,-13.45959 l -9.881571,-13.25425 9.335088,-15.08513 c 5.134305,-8.29683 9.366941,-15.111665 9.405878,-15.144099 0.07857,-0.06546 37.767143,-1.768884 39.130863,-1.768661 0.81734,1.3e-4 0.89135,0.04394 1.57278,0.931326 1.57633,2.052739 20.09844,28.121854 20.09266,28.279594 -0.006,0.16881 -19.51114,29.20043 -19.75314,29.40103 -0.07,0.0581 -9.01507,0.15044 -19.877855,0.20533 -15.350176,0.0776 -19.794254,0.0541 -19.946835,-0.10541 z"
       id="path5402" />
    <path
       style="fill:#00ff00;fill-opacity:0;stroke:#000000;stroke-width:0;stroke-dasharray:none;stroke-opacity:1"
       d="m 68.730837,74.945967 c -5.897698,-7.8126 -10.72308,-14.256378 -10.72308,-14.319491 0,-0.183368 5.176672,-2.184691 7.623037,-2.947095 7.822316,-2.437808 16.451511,-3.859025 26.829631,-4.418797 4.22211,-0.227734 14.458305,-0.225258 17.297885,0.0039 8.15446,0.658885 15.52612,2.435668 22.3454,5.385903 2.77602,1.200992 5.82784,2.749434 5.74227,2.913539 -0.0278,0.05313 -4.33404,5.895705 -9.56961,12.983469 l -9.51921,12.886848 -1.45797,0.102357 c -2.0442,0.143529 -35.695051,1.61783 -36.876609,1.615626 l -0.968676,-0.0021 z"
       id="path5404" />
    <path
       style="fill:#00ff00;fill-opacity:0;stroke:#000000;stroke-width:0;stroke-dasharray:none;stroke-opacity:1"
       d="m 143.96905,118.16288 c -1.44508,-1.85449 -20.80454,-28.397005 -20.77514,-28.483502 0.062,-0.182196 18.3564,-25.48049 18.53207,-25.626835 0.3984,-0.331878 7.2392,5.241323 10.02653,8.168629 9.40883,9.881279 15.63756,22.686428 18.24762,37.513808 0.43797,2.48803 1.15682,8.67179 1.01979,8.77269 -0.0493,0.0363 -6.04285,0.11851 -13.3191,0.1828 l -13.22958,0.11686 z"
       id="path5406" />
    <path
       style="fill:#00ff00;fill-opacity:0;stroke:#000000;stroke-width:0;stroke-dasharray:none;stroke-opacity:1"
       d="m 132.83493,165.84908 c -5.04663,-7.08133 -9.1967,-12.93054 -9.22236,-12.99824 -0.0257,-0.0678 4.7542,-6.87549 10.62192,-15.12836 l 10.6686,-15.0052 3.866,-0.0971 c 2.12631,-0.0534 8.05105,-0.13599 13.16611,-0.18348 l 9.30012,-0.0864 -8.3e-4,3.1722 c -0.003,6.81653 -0.97101,13.60253 -2.8526,19.97193 -4.1487,14.04371 -12.78532,25.18843 -25.22627,32.55205 l -1.14496,0.6777 -9.1757,-12.87513 z"
       id="path5408" />
    <path
       style="fill:#00ff00;fill-opacity:0;stroke:#000000;stroke-width:0;stroke-dasharray:none;stroke-opacity:1"
       d="m 80.00621,150.23664 c -0.107923,-0.11294 -4.643008,-6.16975 -10.077868,-13.45959 l -9.881571,-13.25425 9.335088,-15.08513 c 5.134305,-8.29683 9.366941,-15.111665 9.405878,-15.144099 0.07857,-0.06546 37.767143,-1.768884 39.130863,-1.768661 0.81734,1.3e-4 0.89135,0.04394 1.57278,0.931326 1.57633,2.052739 20.09844,28.121854 20.09266,28.279594 -0.006,0.16881 -19.51114,29.20043 -19.75314,29.40103 -0.07,0.0581 -9.01507,0.15044 -19.877855,0.20533 -15.350176,0.0776 -19.794254,0.0541 -19.946835,-0.10541 z"
       id="path5410" />
    <path
       style="fill:#00ff00;fill-opacity:0;stroke:#000000;stroke-width:0;stroke-dasharray:none;stroke-opacity:1"
       d="m 101.10334,187.18173 c -12.974598,-0.33116 -24.013016,-2.24043 -33.64302,-5.81899 -3.252696,-1.20873 -7.542982,-3.18265 -7.476822,-3.44004 0.02449,-0.0953 4.450469,-5.39163 9.835456,-11.76946 l 9.790891,-11.59603 7.138505,-0.10286 c 3.92619,-0.0566 13.040364,-0.14999 20.25374,-0.20777 l 13.11521,-0.10496 9.32463,13.08573 c 8.8027,12.35327 9.30314,13.09895 8.94078,13.32245 -0.77312,0.47679 -5.73619,2.4035 -8.10853,3.1478 -6.46363,2.02785 -13.71836,3.24693 -20.42975,3.43298 -1.62117,0.045 -3.26775,0.1 -3.65906,0.12213 -0.39131,0.0223 -2.67822,-0.009 -5.08203,-0.0711 z"
       id="path5412" />
    <path
       style="fill:#00ff00;fill-opacity:0;stroke:#000000;stroke-width:0;stroke-dasharray:none;stroke-opacity:1"
       d="m 53.63721,174.26888 c -5.794977,-4.03357 -11.040199,-9.51653 -14.756971,-15.42593 -5.437322,-8.64484 -9.127126,-20.54733 -10.271604,-33.1338 l -0.132894,-1.46153 7.193777,-0.10445 c 3.956587,-0.0575 9.861756,-0.12598 13.122613,-0.15228 l 5.928814,-0.0478 10.464481,14.02839 10.464492,14.02841 -9.84125,11.80073 c -5.412695,6.49041 -9.908165,11.81931 -9.989954,11.84198 -0.08172,0.0226 -1.063465,-0.59548 -2.181509,-1.37368 z"
       id="path5414" />
    <path
       style="fill:#00ff00;fill-opacity:0;stroke:#000000;stroke-width:0;stroke-dasharray:none;stroke-opacity:1"
       d="m 80.00621,150.23664 c -0.107923,-0.11294 -4.643008,-6.16975 -10.077868,-13.45959 l -9.881571,-13.25425 9.335088,-15.08513 c 5.134305,-8.29683 9.366941,-15.111665 9.405878,-15.144099 0.07857,-0.06546 37.767143,-1.768884 39.130863,-1.768661 0.81734,1.3e-4 0.89135,0.04394 1.57278,0.931326 1.57633,2.052739 20.09844,28.121854 20.09266,28.279594 -0.006,0.16881 -19.51114,29.20043 -19.75314,29.40103 -0.07,0.0581 -9.01507,0.15044 -19.877855,0.20533 -15.350176,0.0776 -19.794254,0.0541 -19.946835,-0.10541 z"
       id="path5416" />
    <path
       style="fill:#00ff00;fill-opacity:0;stroke:#000000;stroke-width:0;stroke-dasharray:none;stroke-opacity:1"
       d="m 28.02473,115.85776 c -0.427783,-12.50515 1.523562,-23.539103 5.699318,-32.227018 3.621035,-7.533765 9.039272,-13.802407 15.949176,-18.452405 1.906237,-1.282799 4.030024,-2.526841 4.147151,-2.429271 0.04886,0.04071 4.806633,6.382865 10.572947,14.093807 l 10.484222,14.019898 -8.931763,14.428509 -8.931764,14.42853 -4.331053,0.10855 c -2.382084,0.0597 -8.871836,0.15063 -14.421674,0.20206 l -10.090623,0.0935 z"
       id="path5418" />
    <path
       style="fill:#00ff00;fill-opacity:0;stroke:#000000;stroke-width:0;stroke-dasharray:none;stroke-opacity:1"
       d="m 80.00621,150.23664 c -0.107923,-0.11294 -4.643008,-6.16975 -10.077868,-13.45959 l -9.881571,-13.25425 9.335088,-15.08513 c 5.134305,-8.29683 9.366941,-15.111665 9.405878,-15.144099 0.07857,-0.06546 37.767143,-1.768884 39.130863,-1.768661 0.81734,1.3e-4 0.89135,0.04394 1.57278,0.931326 1.57633,2.052739 20.09844,28.121854 20.09266,28.279594 -0.006,0.16881 -19.51114,29.20043 -19.75314,29.40103 -0.07,0.0581 -9.01507,0.15044 -19.877855,0.20533 -15.350176,0.0776 -19.794254,0.0541 -19.946835,-0.10541 z"
       id="path5420" />
    <path
       style="fill:#00ff00;fill-opacity:0;stroke:#000000;stroke-width:0;stroke-dasharray:none;stroke-opacity:1"
       d="m 80.00621,150.23664 c -0.107923,-0.11294 -4.643008,-6.16975 -10.077868,-13.45959 l -9.881571,-13.25425 9.335088,-15.08513 c 5.134305,-8.29683 9.366941,-15.111665 9.405878,-15.144099 0.07857,-0.06546 37.767143,-1.768884 39.130863,-1.768661 0.81734,1.3e-4 0.89135,0.04394 1.57278,0.931326 1.57633,2.052739 20.09844,28.121854 20.09266,28.279594 -0.006,0.16881 -19.51114,29.20043 -19.75314,29.40103 -0.07,0.0581 -9.01507,0.15044 -19.877855,0.20533 -15.350176,0.0776 -19.794254,0.0541 -19.946835,-0.10541 z"
       id="path5422" />
    <path
       style="fill:#00ff00;fill-opacity:0;stroke:#000000;stroke-width:0;stroke-dasharray:none;stroke-opacity:1"
       d="m 80.00621,150.23664 c -0.107923,-0.11294 -4.643008,-6.16975 -10.077868,-13.45959 l -9.881571,-13.25425 9.335088,-15.08513 c 5.134305,-8.29683 9.366941,-15.111665 9.405878,-15.144099 0.07857,-0.06546 37.767143,-1.768884 39.130863,-1.768661 0.81734,1.3e-4 0.89135,0.04394 1.57278,0.931326 1.57633,2.052739 20.09844,28.121854 20.09266,28.279594 -0.006,0.16881 -19.51114,29.20043 -19.75314,29.40103 -0.07,0.0581 -9.01507,0.15044 -19.877855,0.20533 -15.350176,0.0776 -19.794254,0.0541 -19.946835,-0.10541 z"
       id="path5424" />
    <path
       style="fill:#00ff00;fill-opacity:0;stroke:#000000;stroke-width:0;stroke-dasharray:none;stroke-opacity:1"
       d="m 28.02473,115.85776 c -0.427783,-12.50515 1.523562,-23.539103 5.699318,-32.227018 3.621035,-7.533765 9.039272,-13.802407 15.949176,-18.452405 1.906237,-1.282799 4.030024,-2.526841 4.147151,-2.429271 0.04886,0.04071 4.806633,6.382865 10.572947,14.093807 l 10.484222,14.019898 -8.931763,14.428509 -8.931764,14.42853 -4.331053,0.10855 c -2.382084,0.0597 -8.871836,0.15063 -14.421674,0.20206 l -10.090623,0.0935 z"
       id="path5426" />
    <path
       style="fill:#00ff00;fill-opacity:0;stroke:#000000;stroke-width:0;stroke-dasharray:none;stroke-opacity:1"
       d="m 28.02473,115.85776 c -0.427783,-12.50515 1.523562,-23.539103 5.699318,-32.227018 3.621035,-7.533765 9.039272,-13.802407 15.949176,-18.452405 1.906237,-1.282799 4.030024,-2.526841 4.147151,-2.429271 0.04886,0.04071 4.806633,6.382865 10.572947,14.093807 l 10.484222,14.019898 -8.931763,14.428509 -8.931764,14.42853 -4.331053,0.10855 c -2.382084,0.0597 -8.871836,0.15063 -14.421674,0.20206 l -10.090623,0.0935 z"
       id="path5428" />
    <path
       style="fill:#00ff00;fill-opacity:0;stroke:#000000;stroke-width:0;stroke-dasharray:none;stroke-opacity:1"
       d="m 28.02473,115.85776 c -0.427783,-12.50515 1.523562,-23.539103 5.699318,-32.227018 3.621035,-7.533765 9.039272,-13.802407 15.949176,-18.452405 1.906237,-1.282799 4.030024,-2.526841 4.147151,-2.429271 0.04886,0.04071 4.806633,6.382865 10.572947,14.093807 l 10.484222,14.019898 -8.931763,14.428509 -8.931764,14.42853 -4.331053,0.10855 c -2.382084,0.0597 -8.871836,0.15063 -14.421674,0.20206 l -10.090623,0.0935 z"
       id="path5430" />
    <path
       style="fill:#00ff00;fill-opacity:0;stroke:#000000;stroke-width:0;stroke-dasharray:none;stroke-opacity:1"
       d="M 28.056197,117.7309 C 27.184396,101.85586 30.327924,87.697763 36.90093,77.895102 40.774881,72.117714 45.983554,67.222177 52.185846,63.529126 l 1.597847,-0.951409 10.468869,14.000251 c 5.757885,7.700143 10.50434,14.07994 10.547665,14.177327 0.04329,0.09737 -3.929002,6.654247 -8.827418,14.570795 l -8.906214,14.39372 -2.832737,0.10561 c -1.558011,0.0581 -8.055522,0.1537 -14.438917,0.21248 l -11.606182,0.10687 z"
       id="path5432" />
    <path
       style="fill:#00ff00;fill-opacity:0;stroke:#000000;stroke-width:0;stroke-dasharray:none;stroke-opacity:1"
       d="M 28.056197,117.7309 C 27.184396,101.85586 30.327924,87.697763 36.90093,77.895102 40.774881,72.117714 45.983554,67.222177 52.185846,63.529126 l 1.597847,-0.951409 10.468869,14.000251 c 5.757885,7.700143 10.50434,14.07994 10.547665,14.177327 0.04329,0.09737 -3.929002,6.654247 -8.827418,14.570795 l -8.906214,14.39372 -2.832737,0.10561 c -1.558011,0.0581 -8.055522,0.1537 -14.438917,0.21248 l -11.606182,0.10687 z"
       id="path5434" />
    <path
       style="fill:#00ff00;fill-opacity:0;stroke:#000000;stroke-width:0;stroke-dasharray:none;stroke-opacity:1"
       d="M 28.056197,117.7309 C 27.184396,101.85586 30.327924,87.697763 36.90093,77.895102 40.774881,72.117714 45.983554,67.222177 52.185846,63.529126 l 1.597847,-0.951409 10.468869,14.000251 c 5.757885,7.700143 10.50434,14.07994 10.547665,14.177327 0.04329,0.09737 -3.929002,6.654247 -8.827418,14.570795 l -8.906214,14.39372 -2.832737,0.10561 c -1.558011,0.0581 -8.055522,0.1537 -14.438917,0.21248 l -11.606182,0.10687 z"
       id="path5436" />
    <path
       style="fill:#00ff00;fill-opacity:0;stroke:#000000;stroke-width:0;stroke-dasharray:none;stroke-opacity:1"
       d="M 28.056197,117.7309 C 27.184396,101.85586 30.327924,87.697763 36.90093,77.895102 40.774881,72.117714 45.983554,67.222177 52.185846,63.529126 l 1.597847,-0.951409 10.468869,14.000251 c 5.757885,7.700143 10.50434,14.07994 10.547665,14.177327 0.04329,0.09737 -3.929002,6.654247 -8.827418,14.570795 l -8.906214,14.39372 -2.832737,0.10561 c -1.558011,0.0581 -8.055522,0.1537 -14.438917,0.21248 l -11.606182,0.10687 z"
       id="path5438" />
    <path
       style="fill:#d40000;fill-opacity:0;stroke:#000000;stroke-width:0;stroke-dasharray:none;stroke-opacity:1"
       d="M 28.056197,117.7309 C 27.184396,101.85586 30.327924,87.697763 36.90093,77.895102 40.774881,72.117714 45.983554,67.222177 52.185846,63.529126 l 1.597847,-0.951409 10.468869,14.000251 c 5.757885,7.700143 10.50434,14.07994 10.547665,14.177327 0.04329,0.09737 -3.929002,6.654247 -8.827418,14.570795 l -8.906214,14.39372 -2.832737,0.10561 c -1.558011,0.0581 -8.055522,0.1537 -14.438917,0.21248 l -11.606182,0.10687 z"
       id="path5440" />
    <path
       style="fill:#d40000;fill-opacity:0;stroke:#000000;stroke-width:0;stroke-dasharray:none;stroke-opacity:1"
       d="M 28.056197,117.7309 C 27.184396,101.85586 30.327924,87.697763 36.90093,77.895102 40.774881,72.117714 45.983554,67.222177 52.185846,63.529126 l 1.597847,-0.951409 10.468869,14.000251 c 5.757885,7.700143 10.50434,14.07994 10.547665,14.177327 0.04329,0.09737 -3.929002,6.654247 -8.827418,14.570795 l -8.906214,14.39372 -2.832737,0.10561 c -1.558011,0.0581 -8.055522,0.1537 -14.438917,0.21248 l -11.606182,0.10687 z"
       id="path5511" />
    <path
       style="fill:#d40000;fill-opacity:0;stroke:#000000;stroke-width:0;stroke-dasharray:none;stroke-opacity:1"
       d="M 28.056197,117.7309 C 27.184396,101.85586 30.327924,87.697763 36.90093,77.895102 40.774881,72.117714 45.983554,67.222177 52.185846,63.529126 l 1.597847,-0.951409 10.468869,14.000251 c 5.757885,7.700143 10.50434,14.07994 10.547665,14.177327 0.04329,0.09737 -3.929002,6.654247 -8.827418,14.570795 l -8.906214,14.39372 -2.832737,0.10561 c -1.558011,0.0581 -8.055522,0.1537 -14.438917,0.21248 l -11.606182,0.10687 z"
       id="path5513" />
    <path
       style="fill:#ded387;fill-opacity:1;stroke:#000000;stroke-width:2.92807;stroke-dasharray:none;stroke-opacity:1"
       d="M 62.351664,49.484326 C 57.27284,43.45817 48.552518,30.925379 51.906512,20.946201 55.260505,10.967022 70.688433,3.5433013 86.596374,3.663577 c 15.907946,0.1202757 32.294136,7.783487 36.940966,17.043243 4.64683,9.259756 -2.44428,20.115959 -5.98986,25.66436 -3.54558,5.548401 -3.54558,5.787849 -8.00104,5.78736 -4.45545,-4.89e-4 -13.367223,-0.239961 -19.260729,-0.20012 -5.893507,0.03984 -8.768236,0.359138 -11.595262,0.838059 -2.827027,0.47892 -5.605968,1.117518 -7.714272,1.676287 -2.108304,0.558768 -3.54569,1.037717 -8.624513,-4.98844 z"
       id="path8213"
       inkscape:path-effect="#path-effect8215"
       inkscape:original-d="M 65.992287,55.989703 C 57.27319,43.457926 48.552855,30.925145 39.83133,18.391343 55.261133,10.968328 70.689056,3.5445952 86.116109,-3.8802979 102.50414,3.7842271 118.89034,11.447432 135.27566,19.109784 c -7.09018,10.85765 -14.18128,21.713858 -21.27376,32.569277 10e-4,0.24052 10e-4,0.479968 0,0.71844 -8.91094,-0.23846 -17.822709,-0.477947 -26.7359,-0.718434 -2.873672,0.320312 -5.748399,0.639622 -8.624455,0.957922 -2.777842,0.639633 -5.556783,1.278233 -8.337008,1.915837 -1.43624,0.47998 -2.873627,0.958926 -4.31225,1.436877 z" />
    <path
       style="fill:#ded387;fill-opacity:1;stroke:#000000;stroke-width:3.34637;stroke-dasharray:none;stroke-opacity:1"
       d="m 145.33755,64.132019 c 1.24562,-7.343272 2.49138,-14.687327 8.24191,-17.401673 5.75052,-2.714346 16.00384,-0.798548 22.23218,3.712234 6.22833,4.510782 8.43232,11.615217 4.5994,16.244449 -3.83292,4.629231 -13.70297,6.784509 -18.68627,7.902025 -4.9833,1.117516 -5.07942,1.197624 -5.17526,1.277501"
       id="path10231"
       inkscape:path-effect="#path-effect10233"
       inkscape:original-d="m 145.33755,64.132019 c 1.24697,-7.343044 2.49273,-14.687098 3.73727,-22.032161 10.25502,1.916899 20.50834,3.832693 30.76069,5.74753 2.20528,7.105721 4.40928,14.210152 6.61209,21.313718 -9.86922,2.156364 -19.73927,4.311643 -29.61073,6.46596 -0.0943,0.08082 -0.19065,0.160651 -0.28736,0.239489" />
    <path
       style="fill:#ded387;fill-opacity:1;stroke:#000000;stroke-width:3.34637;stroke-dasharray:none;stroke-opacity:1"
       d="M 42.711923,66.46243 C 41.038987,59.178309 39.365875,51.893418 33.463676,49.415305 27.561478,46.937193 17.432157,49.266187 11.474575,54.023999 5.5169927,58.781811 3.7304601,65.967142 7.8291656,70.435589 c 4.0987054,4.468448 14.0829254,6.22124 19.1256124,7.135544 5.042686,0.914303 5.143297,0.990369 5.243687,1.066268"
       id="path10231-4"
       inkscape:path-effect="#path-effect10233-5"
       inkscape:original-d="M 42.711923,66.46243 C 41.037684,59.178608 39.364545,51.893723 37.692592,44.607786 27.561651,46.937946 17.43233,49.266938 7.3039097,51.594934 5.5161572,58.781603 3.7296133,65.966931 1.9442083,73.151343 c 9.9834487,1.753914 19.9676687,3.506708 29.9532417,5.258478 0.09905,0.07689 0.199821,0.152744 0.301015,0.22758" />
    <path
       style="fill:#ded387;fill-opacity:1;stroke:#000000;stroke-width:3.34637;stroke-dasharray:none;stroke-opacity:1"
       d="m 44.678929,170.62656 c -1.973686,7.23173 -3.94757,14.46419 -9.948907,16.77116 -6.001337,2.30697 -16.028151,-0.31179 -21.785108,-5.23802 -5.7569572,-4.92622 -7.2447883,-12.1586 -2.9634203,-16.50659 4.2813683,-4.348 14.3322243,-5.81275 19.4098253,-6.58153 5.0776,-0.76878 5.181374,-0.84183 5.284641,-0.91453"
       id="path10231-5"
       inkscape:path-effect="#path-effect10233-56"
       inkscape:original-d="m 44.678929,170.62656 c -1.974981,7.23138 -3.948906,14.46383 -5.921646,21.69736 -10.028399,-2.61999 -20.055214,-5.23875 -30.0811679,-7.85648 -1.489001,-7.23379 -2.9768472,-14.46616 -4.4636025,-21.69765 10.0501754,-1.46587 20.1010334,-2.93061 30.1532194,-4.39435 0.10216,-0.0741 0.206055,-0.14698 0.310228,-0.21839" />
    <path
       style="fill:#ded387;fill-opacity:1;stroke:#000000;stroke-width:3.34637;stroke-dasharray:none;stroke-opacity:1"
       d="m 161.56618,167.04765 c 2.9708,6.99122 5.94189,13.98311 12.22476,15.69245 6.28287,1.70934 15.87557,-1.86386 20.90504,-7.31479 5.02947,-5.45093 5.49659,-12.77843 0.63675,-16.68174 -4.85984,-3.9033 -15.04709,-4.38352 -20.19767,-4.65482 -5.15059,-0.27131 -5.26363,-0.33374 -5.37642,-0.39603"
       id="path10231-55"
       inkscape:path-effect="#path-effect10233-0"
       inkscape:original-d="m 161.56618,167.04765 c 2.97204,6.99069 5.94314,13.98258 8.91324,20.97563 9.59414,-3.57452 19.18682,-7.14775 28.77881,-10.71988 0.46812,-7.32896 0.93526,-14.65646 1.4014,-21.98294 -10.18668,-0.48142 -20.37393,-0.96163 -30.56229,-1.44068 -0.11228,-0.0634 -0.22504,-0.12634 -0.3387,-0.18706"
       inkscape:transform-center-x="-5.9077853"
       inkscape:transform-center-y="-0.27794095" />
    <path
       style="fill:#ded387;fill-opacity:1;stroke:#000000;stroke-width:3.34637;stroke-dasharray:none;stroke-opacity:1"
       d="m 65.896624,18.591533 c 0.191833,0.679153 0.575147,2.036214 1.054635,2.674124 0.479488,0.63791 1.054484,0.558076 1.532989,0.07939 0.478505,-0.478691 0.861811,-1.35677 0.383461,-1.995378 -0.47835,-0.638608 -1.819948,-1.037746 -2.491433,-1.237519 -0.671485,-0.199773 -0.671485,-0.199766 -0.479652,0.479387 z"
       id="path10309"
       inkscape:path-effect="#path-effect10311"
       inkscape:original-d="m 65.704791,17.91238 c 0.384519,1.358065 0.767847,2.715122 1.149937,4.071164 0.576182,-0.0788 1.151174,-0.158669 1.724883,-0.239489 0.384518,-0.877102 0.767845,-1.755172 1.149936,-2.634279 -1.340364,-0.398128 -2.681964,-0.797259 -4.024756,-1.197403 z" />
    <path
       style="fill:#ded387;fill-opacity:1;stroke:#000000;stroke-width:3.34637;stroke-dasharray:none;stroke-opacity:1"
       d="m 95.84345,15.118844 c -0.719005,-0.319985 -1.198127,-0.08051 -1.773409,0.478467 -0.575282,0.558976 -1.246042,1.437026 -1.005774,1.95597 0.240268,0.518944 1.390156,0.678593 2.443934,0.558615 1.053778,-0.119978 2.012047,-0.519111 2.012273,-1.157056 2.26e-4,-0.637945 -0.958018,-1.516011 -1.677024,-1.835996 z"
       id="path10313"
       inkscape:path-effect="#path-effect10315"
       inkscape:original-d="m 95.603009,14.559661 c -0.477922,0.240483 -0.957038,0.479972 -1.437387,0.718441 -0.669633,0.879124 -1.340363,1.757197 -2.012378,2.634278 1.151174,0.16069 2.301065,0.320315 3.449765,0.478963 0.959508,-0.398133 1.917782,-0.797253 2.874819,-1.197404 -0.957083,-0.877093 -1.915311,-1.755176 -2.874819,-2.634278 z" />
  </g>
</svg>
